<?xml version="1.0" encoding="UTF-8" standalone="no"?>
<svg
   xmlns:dc="http://purl.org/dc/elements/1.1/"
   xmlns:cc="http://creativecommons.org/ns#"
   xmlns:rdf="http://www.w3.org/1999/02/22-rdf-syntax-ns#"
   xmlns:svg="http://www.w3.org/2000/svg"
   xmlns="http://www.w3.org/2000/svg"
   id="svg2"
   version="1.1"
   xml:space="preserve"
   width="224.51741"
   height="100"
   viewBox="0 0 224.51741 100"><metadata
     id="metadata8"><rdf:RDF><cc:Work
         rdf:about=""><dc:format>image/svg+xml</dc:format><dc:type
           rdf:resource="http://purl.org/dc/dcmitype/StillImage" /><dc:title></dc:title></cc:Work></rdf:RDF></metadata><defs
     id="defs6" /><g
     id="g10"
     transform="matrix(0.30166277,0,0,-0.30166277,6.3302254e-5,100)"><g
       id="g12"
       transform="scale(0.1,0.1)"><path
         d="m 1616.27,3314.96 c -668.086,0 -904.114,-1038.05 -1123.907,-1872.84 -79.375,80.34 -323.816,323.95 -324.101,323.67 -49.16,48.52 -105.6643,32.96 -140.3128,-0.97 -34.72654,-34.83 -39.7265,-99.34 0,-138.37 1.9727,-1.7 331.2968,-330 445.3208,-443.58 31.398,-30.58 76.742,-48.58 121.898,-21.9 47.281,28.63 53.77,80.07 54.812,80.07 390.18,1747.43 738.89,1877.55 965.27,1877.55 190.45,0 409.83,-140.57 409.83,-421.88 284.04,0 461.96,-372.57 233.28,-602.28 189.55,-91.44 273.96,-204.31 273.96,-346.76 0,-142.8 -119.68,-288.4 -293.96,-288.02 -173.02,0 -260.98,111.03 -395.88,111.41 -61.05,0 -98.34,-49.34 -98.34,-97.89 l 0,-352.81 -254.58,0 0,351.39 c -0.46,55.08 -41.1,98.49 -91.57,98.49 -0.97,0 -21.86,-0.59 -21.35,-1.17 l -340.97,-42.4 c -41.178,-5.87 -79.029,-50.38 -79.029,-96.87 0,-54.01 44.129,-98.67 104.749,-98.04 7.48,0 17.75,0 16.85,0.96 -0.56,0 215.9,27.55 215.9,27.55 l 0,-348.23 c 0,-44.329 49.9,-87.161 94.73,-87.208 l 452.97,0 c 52.79,0 98.43,45.309 98.43,98.848 l 0,317.85 c 94.81,-57.92 226.57,-80.27 294.28,-80.27 253.99,0 496.5,199.65 495.45,492.23 -1.07,265.72 -204.05,398.12 -204.05,398.12 119.32,317.49 -73.4,623.83 -323.41,709.08 -90.34,327.54 -370.11,454.27 -586.27,454.27"
         style="fill:#2e6745;fill-opacity:1;fill-rule:nonzero;stroke:none"
         id="path14" /><path
         d="m 1331,536.27 c 0,-82.071 91.7,-131.532 242.57,-203.27 119.79,-55.988 188.66,-115.32 188.66,-162.758 0,-77.0232 -83.09,-104.4217 -160.75,-104.4217 -120.27,0 -191.28,47.8277 -230.47,155.2697 l -3.31,9.199 -9.71,0 c -21.38,0 -38.17,-0.867 -47.57,-12.719 -8.28,-10.711 -6,-25.039 -2.21,-39.058 -0.33,0.226 26.38,-110.3011 26.38,-110.3011 6.97,-27.0898 16.63,-31.3711 59.56,-39.6992 18.73,-3.2812 115.97,-20.17967 198.29,-20.17967 229.74,0 332.46,93.29697 332.46,185.68797 0,67.378 -66.77,131.91 -210.72,203.589 l -65.64,31.481 c -98.54,46.898 -157.8,74.969 -157.8,124.351 0,47.848 61.47,81.321 149.96,81.321 114.69,0 145.57,-64.153 159.56,-120.153 l 2.54,-10.609 11.07,0 c 25.51,0 41.65,2 51.08,12.539 5.74,5.793 7.67,13.762 6.64,23.352 l -9.18,95.589 c -2.51,30.579 -25.94,35.079 -58.33,41.469 C 1765.49,684 1719.3,692.25 1649.51,692.25 1450.12,692.25 1331,633.84 1331,536.27"
         style="fill:#2e6745;fill-opacity:1;fill-rule:nonzero;stroke:none"
         id="path16" /><path
         d="m 1992.4,342.922 c 0,-166.102 144.4,-334.45325 420.27,-334.45325 139.24,0 217.69,31.65235 276.1,62.76175 l 15.84,8.5078 -25.76,28.2737 1.38,-1.481 c -5.99,8.789 -10.96,10.239 -20.17,10.239 l -13.48,-4.532 c -20.98,-9.867 -84.85,-39.3864 -200.78,-39.3864 -142.62,0 -296.42,93.0784 -296.42,297.9804 0,194.957 166.62,264.059 308.93,264.059 102.57,0 156.95,-36.621 166.83,-112.18 l 1.5,-12.5 12.79,0 c 12.03,0 44.42,0 44.42,24.269 l 0,113.77 c 0,27.77 -32.01,31.98 -45.57,33.82 l -13.33,1.739 c -32.83,4.562 -64.17,8.492 -147.49,8.492 C 2196.54,692.25 1992.4,545.41 1992.4,342.922"
         style="fill:#2e6745;fill-opacity:1;fill-rule:nonzero;stroke:none"
         id="path18" /><path
         d="M 951.992,684.172 703.496,682 l -165.793,2.891 -25.269,0.558 c -14.707,0 -25.215,-10.679 -25.215,-25.98 0,-7.047 0,-29.27 27.293,-29.27 100.183,0 103.75,-8.277 104.875,-46.539 l 0.789,-24.25 1.562,-102.262 0,-220.41 c 0,-36.617 -1.25,-94.566 -3.613,-141.4685 C 617.488,81.8203 616.594,69 528.145,69 c -24.629,0 -39.622,-4.8906 -39.622,-29.3516 0,-7.1679 0,-26.1093 23.911,-26.1093 l 5.64,0.1797 c 10.559,0.5429 38.672,1.8515 176.992,1.8515 147.239,0 177.075,-1.5117 186.86,-1.8515 l 5.484,-0.1797 c 19.301,0 36.086,2.2422 36.086,26.1093 C 923.496,67.0117 900.898,69 863.523,69 774.648,69 774.16,81.8203 773.563,94.9609 771.34,138.102 769.59,196.301 769.59,236.738 l 0,79.274 74.277,0 c 114.071,0 126.973,-2.973 143.262,-90.934 4.434,-19.066 19.721,-21.449 32.531,-21.449 26.83,0 29.75,14.66 29.75,21.281 l -2.12,32.621 c -1.85,18.891 -3.77,42.508 -3.77,74.481 l 0,134.937 c 0,20.422 -24.24,20.422 -37.35,20.422 -21.6,0 -26.6,-13.812 -40.357,-77.66 -6.079,-24.301 -53.11,-38.371 -129.075,-38.371 l -67.148,0 0,198.371 c 0,54.109 9.621,54.34 21.484,54.898 43.567,1.77 149.336,5.59 180.989,5.59 30.147,0 57.847,-6.898 75.867,-18.707 56.31,-35.172 85.26,-58.953 102.79,-73.121 17.04,-13.769 26.66,-21.891 40.78,-21.891 7.91,0 32.08,0 32.08,20.821 0,4.988 -2.07,9.738 -9.91,26.879 -9.18,20.351 -24.84,53.902 -44.33,105.261 -5.49,16.168 -24.36,16.168 -59.24,16.168 l -158.108,-1.437"
         style="fill:#2e6745;fill-opacity:1;fill-rule:nonzero;stroke:none"
         id="path20" /><path
         d="m 7306.34,2415.59 -28.1,0 0,192.91 30.35,0 53.87,-127.17 49.83,127.17 30.35,0 0,-192.91 -29.74,0 0,121.71 -37.85,-95.29 -28.62,0 -40.09,94.4 0,-120.82 z m -143.24,0 0,166.64 -62.97,0 0,26.27 156.95,0 0,-26.99 -61.87,0 0,-165.92 -32.11,0"
         style="fill:#2e6745;fill-opacity:1;fill-rule:nonzero;stroke:none"
         id="path22" /><path
         d="m 3605.44,1758.67 c 0,-21.02 5.79,-45.85 22.01,-63.05 l -260,0 c 16.27,17.2 22.06,42.03 22.06,63.05 l 0,554.25 c 0,21.12 -5.79,45.87 -22.06,63.15 l 444.41,0 0,-202.62 c -25.82,13.35 -59.23,15.27 -88.83,15.27 l -117.59,0 0,-71.68 69.81,0 c 21.02,0 43.93,4.79 63.02,13.43 l 0,-181.61 c -19.09,8.59 -42,13.35 -63.02,13.35 l -69.81,0 0,-203.54"
         style="fill:#2e6745;fill-opacity:1;fill-rule:nonzero;stroke:none"
         id="path24" /><path
         d="m 4506.55,2035.82 c 0,-192.11 -149.08,-355.47 -344.97,-355.47 -195.95,0 -344.98,163.36 -344.98,355.47 0,192.11 149.03,355.52 344.98,355.52 195.89,0 344.97,-163.41 344.97,-355.52 m -344.97,-139.53 c 70.71,0 129,57.36 129,139.53 0,82.22 -58.29,139.55 -129,139.55 -70.76,0 -129.03,-57.33 -129.03,-139.55 0,-82.17 58.27,-139.53 129.03,-139.53"
         style="fill:#2e6745;fill-opacity:1;fill-rule:nonzero;stroke:none"
         id="path26" /><path
         d="m 4547.51,2391.34 c 15.27,-13.38 36.32,-22.01 61.17,-22.01 41.09,0 86.94,22.01 164.34,22.01 147.19,0 266.64,-83.14 266.64,-239.91 0,-53.49 -23.89,-108.92 -60.21,-149.03 76.41,-39.21 135.69,-131.94 135.69,-243.73 0,-21.02 5.74,-45.85 22.01,-63.05 l -259.92,0 c 16.19,17.2 21.96,42.03 21.96,63.05 0,55.41 -61.15,120.38 -135.7,135.73 l 0,-135.73 c 0,-21.02 5.73,-45.85 21.98,-63.05 l -260,0 c 16.3,17.2 22.04,42.03 22.04,63.05 l 0,632.67 z m 215.98,-321.1 c 35.31,0 81.24,12.43 81.24,63.05 0,50.66 -45.93,63.07 -81.24,63.07 l 0,-126.12"
         style="fill:#2e6745;fill-opacity:1;fill-rule:nonzero;stroke:none"
         id="path28" /><path
         d="m 5576.61,1695.62 -422.41,0 c 16.22,17.17 21.96,42.03 21.96,63.05 l 0,554.25 c 0,21.12 -5.74,45.87 -21.96,63.15 l 422.41,0 0,-205.57 c -29.63,13.43 -68.81,18.22 -103.23,18.22 l -90.78,0 0,-71.68 48.73,0 c 24.88,0 49.74,2.9 74.63,13.37 l 0,-181.6 c -24.89,10.56 -49.75,13.43 -74.63,13.43 l -48.73,0 0,-79.33 90.78,0 c 34.42,0 73.6,4.77 103.23,18.18 l 0,-205.47"
         style="fill:#2e6745;fill-opacity:1;fill-rule:nonzero;stroke:none"
         id="path30" /><path
         d="m 5646.27,1964.16 c 40.14,-46.85 98.42,-106.05 163.39,-106.05 23.88,0 51.67,16.17 51.67,43.9 0,43.98 -55.47,67.89 -110.9,106.1 -56.36,37.27 -111.8,88.89 -111.8,184.46 0,138.57 96.5,198.75 225.54,198.75 37.27,0 80.26,-20.04 94.6,-20.04 15.32,0 28.67,1.92 39.16,12.43 l 0,-222.74 c -14.28,28.67 -58.28,75.55 -93.62,75.55 -35.37,0 -49.72,-11.48 -49.72,-36.29 0,-38.29 55.43,-58.33 111.82,-95.6 55.43,-37.29 110.91,-91.77 110.91,-201.65 0,-150.05 -111.89,-222.63 -251.36,-222.63 -45.9,0 -89.86,20.03 -125.2,20.03 -21.07,0 -37.31,-3.81 -54.49,-12.45 l 0,276.23"
         style="fill:#2e6745;fill-opacity:1;fill-rule:nonzero;stroke:none"
         id="path32" /><path
         d="m 6056.13,2376.07 472.13,0 0,-200.7 c -19.14,9.53 -46.81,13.35 -70.73,13.35 l -57.33,0 0,-430.05 c 0,-21.02 5.74,-45.85 21.94,-63.05 l -259.93,0 c 16.28,17.2 22.01,42.03 22.01,63.05 l 0,430.05 -57.35,0 c -23.84,0 -51.6,-3.82 -70.74,-13.35 l 0,200.7"
         style="fill:#2e6745;fill-opacity:1;fill-rule:nonzero;stroke:none"
         id="path34" /><path
         d="m 6584.49,1964.16 c 40.14,-46.85 98.48,-106.05 163.44,-106.05 23.84,0 51.57,16.17 51.57,43.9 0,43.98 -55.41,67.89 -110.85,106.1 -56.36,37.27 -111.79,88.89 -111.79,184.46 0,138.57 96.52,198.75 225.56,198.75 37.24,0 80.28,-20.04 94.62,-20.04 15.27,0 28.68,1.92 39.16,12.43 l 0,-222.74 c -14.32,28.67 -58.33,75.55 -93.7,75.55 -35.34,0 -49.67,-11.48 -49.67,-36.29 0,-38.29 55.47,-58.33 111.85,-95.6 55.38,-37.29 110.87,-91.77 110.87,-201.65 0,-150.05 -111.9,-222.63 -251.37,-222.63 -45.88,0 -89.8,20.03 -125.2,20.03 -21.04,0 -37.28,-3.81 -54.49,-12.45 l 0,276.23"
         style="fill:#2e6745;fill-opacity:1;fill-rule:nonzero;stroke:none"
         id="path36" /><path
         d="m 3605.44,918.5 c 0,-21.02 5.79,-45.77 22.01,-63.078 l -260,0 c 16.27,17.308 22.06,42.058 22.06,63.078 l 0,554.33 c 0,21.06 -5.79,45.83 -22.06,63.07 l 444.41,0 0,-202.62 c -25.82,13.37 -59.23,15.27 -88.83,15.27 l -117.59,0 0,-71.65 69.81,0 c 21.02,0 43.93,4.76 63.02,13.38 l 0,-181.58 c -19.09,8.6 -42,13.37 -63.02,13.37 l -69.81,0 0,-203.57"
         style="fill:#2e6745;fill-opacity:1;fill-rule:nonzero;stroke:none"
         id="path38" /><path
         d="m 4506.55,1195.68 c 0,-192.14 -149.08,-355.481 -344.97,-355.481 -195.95,0 -344.98,163.341 -344.98,355.481 0,192.09 149.03,355.52 344.98,355.52 195.89,0 344.97,-163.43 344.97,-355.52 m -344.97,-139.52 c 70.71,0 129,57.32 129,139.52 0,82.19 -58.29,139.55 -129,139.55 -70.76,0 -129.03,-57.36 -129.03,-139.55 0,-82.2 58.27,-139.52 129.03,-139.52"
         style="fill:#2e6745;fill-opacity:1;fill-rule:nonzero;stroke:none"
         id="path40" /><path
         d="m 4547.51,1551.2 c 15.27,-13.38 36.32,-22.02 61.17,-22.02 41.09,0 86.94,22.02 164.34,22.02 147.19,0 266.64,-83.14 266.64,-239.94 0,-53.46 -23.89,-108.89 -60.21,-149 76.41,-39.22 135.69,-131.89 135.69,-243.76 0,-21.02 5.74,-45.852 22.01,-63.078 l -259.92,0 c 16.19,17.226 21.96,42.058 21.96,63.078 0,55.441 -61.15,120.43 -135.7,135.73 l 0,-135.73 c 0,-21.02 5.73,-45.852 21.98,-63.078 l -260,0 c 16.3,17.226 22.04,42.058 22.04,63.078 l 0,632.7 z m 215.98,-321.16 c 35.31,0 81.24,12.46 81.24,63.13 0,50.61 -45.93,63.04 -81.24,63.04 l 0,-126.17"
         style="fill:#2e6745;fill-opacity:1;fill-rule:nonzero;stroke:none"
         id="path42" /><path
         d="m 5882.31,1535.92 226.54,-621.221 c 9.56,-25.801 23.93,-44 39.19,-59.277 l -275.23,0 c 4.77,10.59 6.66,23.887 6.66,36.367 0,21.02 -7.61,41.043 -14.35,61.18 l -187.3,0 c -10.51,-17.25 -16.25,-42.059 -16.25,-62.199 0,-10.481 2.9,-24.758 10.54,-30.52 l 0,-4.828 -277.15,0 c 24.81,23.887 36.31,58.359 49.72,94.629 l 189.22,513.219 c 3.76,10.53 9.53,30.6 9.53,42.06 0,15.27 -9.53,22.91 -20.99,30.59 l 259.87,0 z m -65.94,-426.28 -44.88,209.29 -3.81,0 -43.03,-209.29 91.72,0"
         style="fill:#2e6745;fill-opacity:1;fill-rule:nonzero;stroke:none"
         id="path44" /><path
         d="m 6405.89,1042.8 60.22,0 c 29.63,0 63.03,1.87 88.89,15.25 l 0,-202.628 -387.1,0 c 16.27,17.226 22.01,42.058 22.01,63.078 l 0,554.28 c 0,21.09 -5.74,45.88 -22.01,63.14 l 259.98,0 c -16.25,-17.26 -21.99,-42.05 -21.99,-63.14 l 0,-429.98"
         style="fill:#2e6745;fill-opacity:1;fill-rule:nonzero;stroke:none"
         id="path46" /><path
         d="m 6831.04,1042.8 60.24,0 c 29.57,0 63.02,1.87 88.8,15.25 l 0,-202.628 -386.99,0 c 16.25,17.226 22.01,42.058 22.01,63.078 l 0,554.28 c 0,21.09 -5.76,45.88 -22.01,63.14 l 259.9,0 c -16.2,-17.26 -21.95,-42.05 -21.95,-63.14 l 0,-429.98"
         style="fill:#2e6745;fill-opacity:1;fill-rule:nonzero;stroke:none"
         id="path48" /><path
         d="m 3605.44,78.3789 c 0,-21.0391 5.79,-45.8476 22.01,-63.0703 l -260,0 c 16.27,17.2227 22.06,42.0312 22.06,63.0703 l 0,554.2811 c 0,21.11 -5.79,45.879 -22.06,63.102 l 444.41,0 0,-202.653 c -25.82,13.411 -59.23,15.301 -88.83,15.301 l -117.59,0 0,-71.66 69.81,0 c 21.02,0 43.93,4.82 63.02,13.379 l 0,-181.609 c -19.09,8.64 -42,13.441 -63.02,13.441 l -69.81,0 0,-203.5821"
         style="fill:#66c430;fill-opacity:1;fill-rule:nonzero;stroke:none"
         id="path50" /><path
         d="M 4506.55,355.531 C 4506.55,163.441 4357.47,0 4161.58,0 3965.63,0 3816.6,163.441 3816.6,355.531 c 0,192.09 149.03,355.528 344.98,355.528 195.89,0 344.97,-163.438 344.97,-355.528 M 4161.58,216.039 c 70.71,0 129,57.32 129,139.492 0,82.219 -58.29,139.52 -129,139.52 -70.76,0 -129.03,-57.301 -129.03,-139.52 0,-82.172 58.27,-139.492 129.03,-139.492"
         style="fill:#66c430;fill-opacity:1;fill-rule:nonzero;stroke:none"
         id="path52" /><path
         d="m 4547.51,711.059 c 15.27,-13.379 36.32,-21.989 61.17,-21.989 41.09,0 86.94,21.989 164.34,21.989 147.19,0 266.64,-83.149 266.64,-239.938 0,-53.461 -23.89,-108.871 -60.21,-149.039 76.41,-39.16 135.69,-131.883 135.69,-243.7031 0,-21.0391 5.74,-45.8789 22.01,-63.1172 l -259.92,0 c 16.19,17.2383 21.96,42.0781 21.96,63.1172 0,55.4921 -61.15,120.4301 -135.7,135.6911 l 0,-135.6911 c 0,-21.0391 5.73,-45.8789 21.98,-63.1172 l -260,0 c 16.3,17.2383 22.04,42.0781 22.04,63.1172 l 0,632.6801 z m 215.98,-321.09 c 35.31,0 81.24,12.39 81.24,63.031 0,50.621 -45.93,63.07 -81.24,63.07 l 0,-126.101"
         style="fill:#66c430;fill-opacity:1;fill-rule:nonzero;stroke:none"
         id="path54" /><path
         d="m 5576.61,15.3086 -422.41,0 c 16.22,17.2227 21.96,42.0312 21.96,63.043 l 0,554.3084 c 0,21.051 -5.74,45.949 -21.96,63.129 l 422.41,0 0,-205.5 c -29.63,13.332 -68.81,18.121 -103.23,18.121 l -90.78,0 0,-71.66 48.73,0 c 24.88,0 49.74,2.84 74.63,13.41 l 0,-181.609 c -24.89,10.508 -49.75,13.41 -74.63,13.41 l -48.73,0 0,-79.332 90.78,0 c 34.42,0 73.6,4.75 103.23,18.133 l 0,-205.4534"
         style="fill:#66c430;fill-opacity:1;fill-rule:nonzero;stroke:none"
         id="path56" /><path
         d="M 5866.04,15.3086 5637.66,643.219 c -7.64,20.07 -21.99,37.211 -37.29,52.57 l 275.24,0 c -4.78,-10.539 -6.67,-23.918 -6.67,-36.32 0,-17.25 8.64,-41.117 14.35,-61.231 l 89.81,-317.258 1.89,0 95.57,317.258 c 5.74,20.114 16.3,42.114 16.3,62.172 0,10.488 -2.9,24.84 -10.56,30.5 l 0,4.879 277.21,0 c -24.87,-23.918 -36.35,-58.32 -49.78,-94.648 L 6114.54,87.9102 c -3.8,-10.5 -9.54,-30.5704 -9.54,-42.0313 0,-15.2695 9.54,-22.9101 21.04,-30.5703 l -260,0"
         style="fill:#66c430;fill-opacity:1;fill-rule:nonzero;stroke:none"
         id="path58" /><path
         d="m 6784.3,15.3086 -422.44,0 c 16.27,17.2227 21.99,42.0312 21.99,63.043 l 0,554.3084 c 0,21.051 -5.72,45.949 -21.99,63.129 l 422.44,0 0,-205.5 c -29.63,13.332 -68.87,18.121 -103.21,18.121 l -90.8,0 0,-71.66 48.74,0 c 24.79,0 49.67,2.84 74.56,13.41 l 0,-181.609 c -24.89,10.508 -49.77,13.41 -74.56,13.41 l -48.74,0 0,-79.332 90.8,0 c 34.34,0 73.58,4.75 103.21,18.133 l 0,-205.4534"
         style="fill:#66c430;fill-opacity:1;fill-rule:nonzero;stroke:none"
         id="path60" /><path
         d="m 6852.99,711.059 c 15.24,-13.379 36.26,-21.989 61.15,-21.989 41.1,0 86.95,21.989 164.4,21.989 147.19,0 266.6,-83.149 266.6,-239.938 0,-53.461 -23.83,-108.871 -60.18,-149.039 76.48,-39.16 135.68,-131.883 135.68,-243.7031 0,-21.0391 5.75,-45.8789 22.02,-63.1172 l -259.95,0 c 16.26,17.2383 21.98,42.0781 21.98,63.1172 0,55.4921 -61.15,120.4301 -135.71,135.6911 l 0,-135.6911 c 0,-21.0391 5.7,-45.8789 21.95,-63.1172 l -259.93,0 c 16.22,17.2383 21.99,42.0781 21.99,63.1172 l 0,632.6801 z m 215.99,-321.09 c 35.38,0 81.25,12.39 81.25,63.031 0,50.621 -45.87,63.07 -81.25,63.07 l 0,-126.101"
         style="fill:#66c430;fill-opacity:1;fill-rule:nonzero;stroke:none"
         id="path62" /></g></g>
</svg>
